<svg width="63" height="63" viewBox="0 0 63 63" fill="none" xmlns="http://www.w3.org/2000/svg">
<path d="M58.8 16.8H42V31.5C42.006 33.3576 42.6276 35.1607 43.7676 36.6274C44.9075 38.0941 46.5014 39.1416 48.3 39.606V54.6H46.2C45.6431 54.6 45.1089 54.8212 44.7151 55.2151C44.3213 55.6089 44.1 56.143 44.1 56.7C44.1 57.257 44.3213 57.7911 44.7151 58.1849C45.1089 58.5788 45.6431 58.8 46.2 58.8H54.6C55.157 58.8 55.6911 58.5788 56.0849 58.1849C56.4788 57.7911 56.7 57.257 56.7 56.7C56.7 56.143 56.4788 55.6089 56.0849 55.2151C55.6911 54.8212 55.157 54.6 54.6 54.6H52.5V39.606C54.2986 39.1416 55.8925 38.0941 57.0325 36.6274C58.1724 35.1607 58.794 33.3576 58.8 31.5V16.8ZM54.6 31.5C54.6 32.6139 54.1575 33.6822 53.3699 34.4698C52.5822 35.2575 51.5139 35.7 50.4 35.7C49.2861 35.7 48.2178 35.2575 47.4302 34.4698C46.6425 33.6822 46.2 32.6139 46.2 31.5V21H54.6V31.5ZM23.1 10.5V8.4C23.657 8.4 24.1911 8.17875 24.5849 7.78492C24.9788 7.3911 25.2 6.85695 25.2 6.3C25.2 5.74304 24.9788 5.2089 24.5849 4.81508C24.1911 4.42125 23.657 4.2 23.1 4.2V2.1C23.1 1.54305 22.8788 1.0089 22.4849 0.615076C22.0911 0.221249 21.557 0 21 0L16.8 0C16.2431 0 15.7089 0.221249 15.3151 0.615076C14.9213 1.0089 14.7 1.54305 14.7 2.1V4.2C14.1431 4.2 13.6089 4.42125 13.2151 4.81508C12.8213 5.2089 12.6 5.74304 12.6 6.3C12.6 6.85695 12.8213 7.3911 13.2151 7.78492C13.6089 8.17875 14.1431 8.4 14.7 8.4V10.5C14.7 16.506 4.20001 23.394 4.20001 29.4V54.6C4.20001 55.7139 4.64251 56.7822 5.43016 57.5698C6.21782 58.3575 7.2861 58.8 8.40001 58.8H29.4C30.4821 58.7054 31.4963 58.2325 32.2644 57.4644C33.0325 56.6963 33.5054 55.6821 33.6 54.6V29.4C33.6 23.73 23.1 16.17 23.1 10.5ZM18.9 50.4C16.1152 50.4 13.4445 49.2938 11.4754 47.3246C9.50626 45.3555 8.40001 42.6848 8.40001 39.9C8.40001 37.1152 9.50626 34.4445 11.4754 32.4754C13.4445 30.5062 16.1152 29.4 18.9 29.4C21.6848 29.4 24.3555 30.5062 26.3246 32.4754C28.2938 34.4445 29.4 37.1152 29.4 39.9C29.4 42.6848 28.2938 45.3555 26.3246 47.3246C24.3555 49.2938 21.6848 50.4 18.9 50.4Z" fill="#521818"/>
</svg>
