<svg width="98" height="241" viewBox="0 0 98 241" fill="none" xmlns="http://www.w3.org/2000/svg">
<path d="M97.0859 127.801C96.4484 126.975 95.1617 123.81 94.5868 122.762C94.0125 121.714 91.868 118.177 90.2212 116.524C89.8145 116.116 89.4059 115.825 89.0209 115.618C87.8297 112.741 86.3824 101.168 85.5681 92.3666C84.7063 83.0545 81.8915 79.3657 81.8915 79.3657C82.2936 71.7468 79.8809 63.8252 79.9577 61.9508C80.0345 60.0763 79.9577 54.2308 79.9577 54.2308C79.5364 44.6363 74.7111 42.7821 69.4644 41.0082C64.2177 39.2342 57.8223 35.848 56.8645 34.961C55.9072 34.0741 55.9072 32.6229 55.8688 30.2444C55.832 27.9429 56.762 25.49 57.5162 22.7041C59.5465 22.6536 60.7437 16.2358 59.7369 15.6514C59.3737 15.4403 59.1009 15.4244 58.8978 15.4972C59.2166 12.2328 59.0827 8.55678 57.5925 5.69434C54.7585 0.252365 49.2436 0.4539 49.2436 0.4539H48.7596C48.7596 0.4539 43.2447 0.252365 40.4107 5.69434C38.92 8.55678 38.7866 12.2323 39.1054 15.4972C38.9023 15.4244 38.6295 15.4409 38.2663 15.6514C37.2595 16.2364 38.4563 22.6536 40.487 22.7041C41.2412 25.49 42.1718 27.9429 42.1344 30.2444C42.096 32.6229 42.096 34.0741 41.1387 34.961C40.1814 35.848 33.7855 39.2342 28.5388 41.0082C23.2922 42.7821 18.4668 44.6363 18.0455 54.2308C18.0455 54.2308 17.9687 60.0763 18.0455 61.9508C18.1223 63.8252 15.7096 71.7468 16.1117 79.3657C16.1117 79.3657 13.2969 83.0545 12.4351 92.3666C11.6208 101.168 10.1735 112.741 8.9823 115.618C8.59686 115.825 8.18818 116.116 7.78202 116.524C6.13518 118.176 3.99075 121.714 3.41637 122.762C2.842 123.81 1.55483 126.975 0.917311 127.801C0.170674 128.768 0.273223 130.196 1.60686 129.525C2.92787 128.859 4.25899 127.237 4.79497 126.269C5.33095 125.301 5.71387 125.06 5.71387 125.06C5.71387 125.06 5.00108 131.399 4.80305 133.325C4.5828 135.462 3.81848 138.384 4.87176 138.686C6.02909 139.018 6.32714 137.396 6.5186 136.146C6.71006 134.896 7.89872 128.889 8.27608 128.527C8.74689 128.076 8.53977 128.776 8.43318 130.22C8.39732 130.709 8.24172 133.163 8.01187 134.735C7.78202 136.308 7.01619 139.815 8.62464 139.613C10.2331 139.411 10.616 129.938 10.8843 129.253C11.1525 128.567 11.3823 128.85 11.2288 130.543C11.1803 131.078 10.3478 137.436 10.6544 138.726C10.9605 140.016 12.1482 139.815 12.5311 138.162C12.914 136.509 13.2969 129.817 13.5652 129.334C13.8334 128.85 13.9097 129.737 13.8329 130.946C13.7768 131.831 13.2969 136.671 14.2158 136.872C15.1347 137.074 15.5085 136.479 15.7632 132.942C15.9864 129.845 16.0157 128.124 16.1688 126.149C16.3219 124.174 16.5133 118.369 15.5944 116.595C15.5944 116.595 16.7432 110.629 19.118 105.469C21.4922 100.309 25.0158 91.2792 24.8627 86.8449C24.7354 83.1625 27.6714 70.3631 28.7586 66.0352C28.8616 67.1141 29.0117 68.2568 29.2284 69.4299C30.3008 75.2351 31.9093 82.2494 31.6794 86.6029C31.4496 90.9569 30.9899 97.5682 30.5307 100.148C30.071 102.728 27.3138 112.725 27.3906 125.061C27.4674 137.397 29.0758 151.949 29.8416 155.013C30.6075 158.077 30.8282 161.113 30.5984 163.21C30.3685 165.306 29.9184 169.969 30.3776 173.114C30.3776 173.114 28.5393 181.337 29.9947 192.544C31.4501 203.751 34.0542 216.087 34.0542 217.377C34.0542 217.492 34.0542 217.667 34.0542 217.889C33.9289 218.491 33.79 219.09 33.6647 219.691C33.5132 220.418 33.4112 221.146 33.392 221.891C33.3733 222.628 33.4127 223.363 33.4248 224.1C33.4334 224.617 33.4197 225.132 33.3723 225.645C33.0202 226.397 32.5958 227.121 32.1609 227.812C31.5703 228.751 30.9025 229.633 30.2236 230.502C29.538 231.378 28.8384 232.244 28.1847 233.148C27.8599 233.597 27.5462 234.056 27.2522 234.529C26.9455 235.021 26.599 235.539 26.4899 236.128C26.3888 236.67 26.5353 237.218 27.0264 237.476C27.1244 237.528 27.2284 237.56 27.3325 237.575C27.3193 237.741 27.3289 237.911 27.3744 238.086C27.5411 238.728 28.162 239.19 28.7869 239.209C28.8712 239.515 29.0854 239.748 29.4173 239.848C29.8235 239.969 30.2645 239.842 30.6272 239.621C30.6454 239.718 30.6752 239.814 30.7201 239.907C30.9464 240.372 31.4516 240.572 31.9265 240.557C32.4877 240.539 32.9641 240.191 33.3379 239.774C33.5314 239.558 33.7072 239.327 33.8825 239.097C33.8087 239.408 33.8022 239.733 33.9118 240.035C34.1164 240.599 34.6983 240.883 35.2333 240.963C35.741 241.039 36.2542 240.932 36.7109 240.692C36.8862 240.6 37.0655 240.483 37.2322 240.344C37.5449 240.183 37.8298 239.948 38.0728 239.693C38.6134 239.129 38.9862 238.426 39.267 237.687C39.8894 236.051 40.0895 234.274 40.4143 232.557C40.4754 232.235 40.5391 231.909 40.6093 231.584C40.6497 231.613 40.7133 231.61 40.7684 231.551C41.465 230.807 41.7338 229.603 41.8171 228.596C41.9192 227.36 41.7403 226.128 41.5231 224.917C41.2928 223.632 41.0649 222.351 40.9205 221.051C40.7765 219.752 40.6972 218.446 40.6381 217.141C40.6057 216.423 40.5764 215.705 40.5471 214.987C40.5451 214.934 40.5421 214.882 40.5401 214.829C40.6795 212.836 40.8406 210.894 41.024 209.234C41.7898 202.3 44.4708 190.771 43.7812 184.805C43.0917 178.838 43.9318 163.6 44.6622 159.246C45.3927 154.892 48.9132 130.383 48.1474 123.368L49.0021 123.287L49.8569 123.368C49.091 130.383 52.6115 154.893 53.342 159.246C54.0725 163.6 54.9121 178.838 54.223 184.805C53.5335 190.771 56.2144 202.3 56.9802 209.234C57.1636 210.894 57.3247 212.836 57.4642 214.829C57.4616 214.882 57.4591 214.934 57.4566 214.987C57.4273 215.705 57.398 216.423 57.3657 217.141C57.3071 218.447 57.2272 219.752 57.0833 221.051C56.9388 222.351 56.711 223.632 56.4806 224.917C56.2634 226.128 56.0846 227.36 56.1866 228.596C56.27 229.603 56.5382 230.807 57.2353 231.551C57.2899 231.61 57.354 231.613 57.3945 231.584C57.4647 231.909 57.5283 232.235 57.5894 232.557C57.9143 234.274 58.1143 236.051 58.7367 237.687C59.0181 238.426 59.3904 239.129 59.9309 239.693C60.1744 239.948 60.4588 240.183 60.7715 240.344C60.9382 240.483 61.1175 240.6 61.2928 240.692C61.7495 240.932 62.2627 241.039 62.7704 240.963C63.3054 240.883 63.8874 240.599 64.092 240.035C64.2016 239.733 64.195 239.408 64.1213 239.097C64.2965 239.328 64.4718 239.558 64.6658 239.774C65.0396 240.191 65.5155 240.539 66.0772 240.557C66.5521 240.572 67.0573 240.373 67.2836 239.907C67.3286 239.814 67.3584 239.718 67.3765 239.621C67.7393 239.842 68.1803 239.969 68.5864 239.848C68.9183 239.748 69.132 239.515 69.2169 239.209C69.8418 239.19 70.4626 238.729 70.6293 238.086C70.6748 237.911 70.6844 237.741 70.6712 237.575C70.7753 237.56 70.8794 237.528 70.9779 237.476C71.4689 237.218 71.6154 236.67 71.5144 236.128C71.4052 235.539 71.0587 235.021 70.7521 234.529C70.4581 234.056 70.1443 233.597 69.8195 233.148C69.1658 232.244 68.4662 231.379 67.7807 230.502C67.1017 229.633 66.4339 228.75 65.8434 227.812C65.4084 227.12 64.9841 226.397 64.632 225.645C64.5845 225.132 64.5714 224.617 64.5794 224.1C64.5916 223.363 64.631 222.628 64.6123 221.891C64.5931 221.146 64.491 220.418 64.3395 219.691C64.2142 219.089 64.0753 218.491 63.95 217.889C63.95 217.667 63.95 217.492 63.95 217.377C63.95 216.087 66.5541 203.751 68.0095 192.544C69.4649 181.338 67.6266 173.114 67.6266 173.114C68.0863 169.969 67.6357 165.306 67.4058 163.21C67.176 161.113 67.3968 158.077 68.1626 155.013C68.9284 151.949 70.5369 137.397 70.6137 125.061C70.6904 112.725 67.9327 102.728 67.4735 100.148C67.0138 97.5677 66.5546 90.9564 66.3248 86.6029C66.0949 82.2494 67.7034 75.2351 68.7759 69.4299C68.9926 68.2574 69.1426 67.1141 69.2457 66.0352C70.3328 70.3631 73.2688 83.1625 73.1415 86.8449C72.9884 91.2792 76.5115 100.309 78.8858 105.469C81.26 110.629 82.4093 116.595 82.4093 116.595C81.4899 118.369 81.6819 124.174 81.8349 126.149C81.988 128.125 82.0173 129.845 82.2406 132.942C82.4957 136.479 82.869 137.074 83.7879 136.872C84.7073 136.671 84.2274 131.831 84.1708 130.946C84.094 129.737 84.1708 128.85 84.4385 129.334C84.7068 129.818 85.0897 136.509 85.4726 138.162C85.8555 139.815 87.0427 140.016 87.3493 138.726C87.656 137.436 86.8234 131.078 86.7749 130.543C86.6219 128.85 86.8517 128.567 87.1195 129.253C87.3877 129.938 87.7706 139.411 89.3791 139.613C90.9875 139.815 90.2217 136.308 89.9919 134.735C89.762 133.163 89.6064 130.709 89.5705 130.22C89.4645 128.775 89.2568 128.076 89.7276 128.527C90.1055 128.889 91.2937 134.896 91.4851 136.146C91.6766 137.396 91.9746 139.018 93.132 138.686C94.1852 138.383 93.4209 135.462 93.2007 133.325C93.0021 131.399 92.2893 125.06 92.2893 125.06C92.2893 125.06 92.6723 125.302 93.2087 126.269C93.7447 127.236 95.0759 128.859 96.3969 129.525C97.73 130.196 97.8325 128.768 97.0859 127.801Z" fill="white"/>
<path d="M39.2269 95.804C44.0745 95.7557 47.7094 99.2905 52.5062 98.8323C56.2536 98.4742 58.8239 95.7514 62.6019 95.8851C64.3 95.9452 65.7112 96.582 67.1009 97.2405C67.2223 98.4267 67.3477 99.4392 67.4739 100.148C67.9331 102.728 70.6903 112.725 70.6136 125.061C70.5368 137.396 68.9283 151.948 68.1624 155.013C67.3966 158.076 67.1757 161.114 67.4056 163.21C67.6355 165.307 68.0859 169.97 67.6263 173.114C67.6263 173.114 69.4644 181.338 68.0091 192.544C66.5537 203.751 63.9505 216.087 63.9505 217.377V217.89C64.0757 218.491 64.214 219.089 64.3392 219.691C64.4907 220.418 64.5934 221.146 64.6126 221.892C64.6313 222.629 64.5915 223.364 64.5794 224.101C64.5714 224.617 64.5847 225.132 64.6321 225.645C64.9842 226.397 65.4082 227.12 65.8431 227.812C66.4336 228.75 67.1016 229.633 67.7806 230.502C68.466 231.38 69.166 232.245 69.8196 233.149C70.1444 233.598 70.4583 234.057 70.7523 234.529C71.0588 235.021 71.4048 235.539 71.514 236.127C71.615 236.67 71.4688 237.218 70.9779 237.476C70.8793 237.527 70.7753 237.561 70.6712 237.575C70.6843 237.741 70.6746 237.911 70.6292 238.086C70.4625 238.729 69.8419 239.191 69.2171 239.209C69.1322 239.516 68.9181 239.748 68.5863 239.848C68.1802 239.97 67.7389 239.842 67.3763 239.62C67.3581 239.718 67.3284 239.814 67.2835 239.907C67.0572 240.373 66.5523 240.572 66.0775 240.557C65.5159 240.539 65.0401 240.191 64.6663 239.775C64.4724 239.559 64.2967 239.328 64.1214 239.097C64.1952 239.408 64.2017 239.733 64.0921 240.035C63.8876 240.599 63.3057 240.883 62.7708 240.963C62.2633 241.039 61.7498 240.933 61.2933 240.693C61.1181 240.601 60.9384 240.483 60.7718 240.345C60.4591 240.183 60.1745 239.948 59.931 239.694C59.3905 239.129 59.018 238.427 58.7366 237.688C58.1143 236.052 57.914 234.275 57.5892 232.558C57.5281 232.235 57.465 231.909 57.3948 231.584C57.3544 231.614 57.2902 231.61 57.2357 231.551C56.5386 230.807 56.2702 229.604 56.1868 228.596C56.0848 227.36 56.2636 226.128 56.4808 224.917C56.7111 223.632 56.9388 222.351 57.0833 221.051C57.2273 219.753 57.3069 218.447 57.3656 217.141C57.3979 216.423 57.4271 215.705 57.4564 214.988C57.4589 214.935 57.4617 214.882 57.4642 214.829C57.3248 212.836 57.1632 210.894 56.9798 209.235C56.214 202.301 53.5335 190.771 54.223 184.805C54.912 178.839 54.0726 163.6 53.3421 159.246C52.6115 154.892 49.0909 130.383 49.8568 123.368L49.0023 123.286L48.1478 123.368C48.9136 130.383 45.393 154.892 44.6624 159.246C43.932 163.6 43.092 178.839 43.7816 184.805C44.4711 190.771 41.7896 202.301 41.0238 209.235C40.8404 210.895 40.6798 212.836 40.5404 214.829C40.5424 214.882 40.5452 214.935 40.5472 214.988C40.5765 215.705 40.6057 216.423 40.638 217.141C40.6971 218.446 40.7763 219.753 40.9202 221.051C41.0647 222.351 41.2924 223.632 41.5228 224.917C41.74 226.128 41.9188 227.361 41.8167 228.596C41.7334 229.603 41.4652 230.807 40.7689 231.551C40.714 231.609 40.6501 231.613 40.6097 231.584C40.5395 231.909 40.4755 232.235 40.4144 232.558C40.0896 234.275 39.8892 236.052 39.2669 237.688C38.9861 238.426 38.613 239.129 38.0726 239.694C37.8297 239.948 37.5453 240.183 37.2327 240.345C37.0661 240.483 36.8865 240.601 36.7113 240.693C36.2547 240.932 35.7413 241.039 35.2337 240.963C34.6987 240.883 34.116 240.599 33.9114 240.035C33.8019 239.733 33.8084 239.408 33.8822 239.097C33.7069 239.327 33.5316 239.559 33.3382 239.775C32.9644 240.192 32.4873 240.539 31.9261 240.557C31.4514 240.572 30.9463 240.372 30.72 239.907C30.6752 239.814 30.6454 239.718 30.6273 239.62C30.2646 239.842 29.8235 239.97 29.4173 239.848C29.0854 239.748 28.8708 239.516 28.7864 239.209C28.1617 239.19 27.541 238.728 27.3743 238.086C27.329 237.911 27.3193 237.741 27.3323 237.575C27.2283 237.561 27.1246 237.527 27.0267 237.476C26.5357 237.218 26.3885 236.67 26.4896 236.127C26.5988 235.539 26.9457 235.021 27.2523 234.529C27.5462 234.057 27.8601 233.598 28.1849 233.149C28.8385 232.244 29.5385 231.379 30.2239 230.502C30.9029 229.633 31.5699 228.751 32.1605 227.812C32.5954 227.121 33.0203 226.397 33.3724 225.645C33.4198 225.132 33.4337 224.617 33.4251 224.101C33.413 223.364 33.3732 222.629 33.3919 221.892C33.4111 221.146 33.5128 220.418 33.6644 219.691C33.7896 219.09 33.9288 218.492 34.054 217.89V217.377C34.054 216.087 31.4498 203.751 29.9945 192.544C28.5392 181.337 30.3773 173.114 30.3773 173.114C29.9182 169.969 30.3681 165.307 30.598 163.21C30.8278 161.114 30.6079 158.077 29.8421 155.013C29.0763 151.948 27.4677 137.396 27.3909 125.061C27.3142 112.725 30.0709 102.728 30.5306 100.148C30.6186 99.6534 30.7059 99.011 30.7923 98.2649C33.5367 97.3309 36.1158 95.8351 39.2269 95.804ZM16.5247 96.2044C18.6652 96.308 20.4145 97.1658 22.2269 97.9056C21.2133 100.685 20.0744 103.391 19.1185 105.469C16.7437 110.629 15.5941 116.596 15.5941 116.596C16.5129 118.37 16.3223 124.174 16.1693 126.15C16.0162 128.125 15.9863 129.845 15.763 132.943C15.5084 136.479 15.1349 137.074 14.2161 136.872C13.2972 136.671 13.7773 131.831 13.8333 130.947C13.9101 129.737 13.833 128.85 13.5648 129.334C13.2965 129.822 12.9143 136.51 12.5316 138.162C12.1486 139.815 10.9607 140.016 10.6546 138.726C10.3482 137.435 11.1802 131.08 11.2288 130.543C11.3824 128.85 11.1523 128.568 10.8841 129.253C10.6159 129.941 10.2326 139.412 8.62434 139.614C7.01648 139.814 7.78217 136.308 8.01203 134.736C8.24189 133.163 8.39707 130.709 8.43293 130.22C8.53953 128.776 8.74649 128.076 8.27571 128.528C7.8979 128.894 6.71044 134.896 6.51887 136.146C6.32741 137.395 6.02875 139.018 4.87141 138.686C3.81875 138.383 4.58279 135.462 4.80305 133.325C5.00108 131.399 5.71418 125.06 5.71418 125.06C5.71418 125.06 5.33122 125.302 4.79524 126.27C4.25916 127.238 2.92765 128.86 1.60676 129.525C0.273222 130.196 0.170691 128.768 0.917308 127.801C1.55487 126.975 2.84199 123.81 3.41633 122.762C3.99095 121.714 6.13585 118.176 7.78254 116.524C8.18859 116.116 8.59739 115.825 8.98274 115.617C9.9746 113.221 11.1422 104.797 11.9759 96.9632C13.4039 96.4888 14.9346 96.1275 16.5247 96.2044ZM81.4251 95.4446C83.0571 95.2432 84.5193 95.5741 85.9349 96.0931C86.7729 104.163 87.9921 113.133 89.0208 115.617C89.4057 115.825 89.8144 116.116 90.221 116.524C91.8678 118.177 94.0127 121.714 94.5872 122.762C95.1621 123.81 96.4487 126.975 97.0863 127.801C97.8329 128.768 97.7299 130.196 96.3968 129.525C95.0761 128.86 93.7455 127.237 93.2093 126.27C92.6728 125.303 92.2894 125.06 92.2894 125.06C92.2894 125.06 93.002 131.399 93.2005 133.325C93.4208 135.462 94.1852 138.383 93.1321 138.686C91.9748 139.018 91.6771 137.395 91.4857 136.146C91.2941 134.896 90.106 128.893 89.7279 128.528C89.2571 128.076 89.4645 128.775 89.5706 130.22C89.6065 130.709 89.7617 133.163 89.9915 134.736C90.2214 136.308 90.9875 139.815 89.3792 139.614C87.7709 139.412 87.3877 129.94 87.1195 129.253C86.8517 128.568 86.6217 128.85 86.7747 130.543C86.8234 131.079 87.6554 137.435 87.3489 138.726C87.0423 140.016 85.856 139.815 85.473 138.162C85.0902 136.51 84.707 129.821 84.4388 129.334C84.1711 128.851 84.0944 129.737 84.1712 130.947C84.2278 131.831 84.7072 136.669 83.7884 136.872C82.8695 137.074 82.4957 136.48 82.2405 132.943C82.0173 129.845 81.9883 128.125 81.8353 126.15C81.6822 124.174 81.4902 118.37 82.4095 116.596C82.4095 116.596 81.2603 110.629 78.8861 105.469C77.9219 103.374 76.7702 100.64 75.7503 97.8353C77.5582 96.9524 79.1791 95.7219 81.4251 95.4446Z" fill="url(#paint0_linear_55_919)"/>
<path d="M39.2267 159.803C41.0992 159.785 42.7903 160.302 44.4377 160.916C43.7777 166.64 43.1629 179.452 43.7814 184.804C44.471 190.771 41.7904 202.3 41.0246 209.234C40.8412 210.894 40.6796 212.835 40.5402 214.829C40.5422 214.881 40.545 214.934 40.547 214.987C40.5763 215.705 40.6055 216.423 40.6379 217.14C40.697 218.446 40.7761 219.752 40.9201 221.05C41.0645 222.35 41.2933 223.632 41.5236 224.917C41.7408 226.127 41.9195 227.36 41.8175 228.595C41.7342 229.603 41.4653 230.807 40.7687 231.551C40.7137 231.61 40.6499 231.613 40.6095 231.584C40.5393 231.909 40.4753 232.235 40.4142 232.557C40.0894 234.274 39.8891 236.051 39.2668 237.687C38.9859 238.426 38.6139 239.129 38.0734 239.694C37.8305 239.948 37.5452 240.183 37.2326 240.344C37.0659 240.483 36.8863 240.6 36.7111 240.692C36.2545 240.932 35.7412 241.039 35.2336 240.964C34.6987 240.884 34.117 240.599 33.9123 240.036C33.8027 239.733 33.8093 239.408 33.883 239.097C33.7077 239.327 33.5314 239.558 33.338 239.774C32.9643 240.191 32.488 240.539 31.9269 240.557C31.4521 240.572 30.9462 240.373 30.7199 239.907C30.6749 239.814 30.6453 239.719 30.6271 239.621C30.2644 239.842 29.8232 239.969 29.4171 239.847C29.0855 239.747 28.8716 239.515 28.7873 239.209C28.1624 239.19 27.5409 238.728 27.3742 238.087C27.3287 237.911 27.3191 237.741 27.3322 237.575C27.2283 237.56 27.1244 237.528 27.0265 237.476C26.5355 237.218 26.3894 236.67 26.4904 236.128C26.5995 235.54 26.9455 235.021 27.2521 234.529C27.5461 234.057 27.8599 233.597 28.1847 233.148C28.8384 232.244 29.5383 231.378 30.2238 230.502C30.9027 229.633 31.5708 228.751 32.1613 227.812C32.5962 227.121 33.0201 226.397 33.3722 225.645C33.4197 225.133 33.4335 224.617 33.425 224.1C33.4128 223.363 33.3731 222.628 33.3918 221.891C33.411 221.146 33.5137 220.418 33.6652 219.691C33.7905 219.09 33.9286 218.491 34.0539 217.889V217.377C34.0535 216.085 31.4506 203.751 29.9953 192.545C28.5442 181.371 30.3672 173.163 30.3781 173.114C29.9189 169.969 30.3689 165.306 30.5988 163.21C30.6299 162.926 30.6508 162.624 30.6652 162.308C33.4573 161.378 36.0676 159.835 39.2267 159.803ZM62.6017 159.884C64.3892 159.948 65.8594 160.649 67.3205 161.343C67.3157 162.021 67.3449 162.649 67.4064 163.21C67.6363 165.306 68.0868 169.97 67.6271 173.114C67.6415 173.178 69.4596 181.382 68.0099 192.545C66.5546 203.751 63.9507 216.085 63.9504 217.377V217.889C64.0756 218.491 64.2147 219.089 64.34 219.691C64.4915 220.418 64.5933 221.146 64.6125 221.891C64.6312 222.628 64.5914 223.363 64.5793 224.1C64.5712 224.617 64.5845 225.133 64.632 225.645C64.9841 226.397 65.409 227.12 65.8439 227.812C66.4344 228.751 67.1016 229.633 67.7804 230.502C68.4659 231.379 69.1658 232.244 69.8195 233.148C70.1443 233.597 70.4581 234.057 70.7521 234.529C71.0587 235.021 71.4057 235.539 71.5148 236.128C71.6158 236.67 71.4687 237.218 70.9777 237.476C70.8793 237.528 70.775 237.56 70.6711 237.575C70.6842 237.741 70.6745 237.911 70.6291 238.087C70.4623 238.729 69.8418 239.19 69.217 239.209C69.1321 239.515 68.918 239.747 68.5861 239.847C68.1802 239.969 67.7397 239.842 67.3771 239.621C67.3589 239.719 67.3283 239.814 67.2834 239.907C67.057 240.373 66.5521 240.573 66.0773 240.557C65.5156 240.539 65.04 240.191 64.6662 239.774C64.4723 239.558 64.2965 239.328 64.1213 239.097C64.1949 239.408 64.2015 239.733 64.092 240.036C63.8873 240.599 63.3055 240.883 62.7707 240.964C62.263 241.04 61.7498 240.932 61.2931 240.692C61.1178 240.6 60.9383 240.483 60.7716 240.344C60.459 240.183 60.1743 239.948 59.9308 239.694C59.3903 239.129 59.0179 238.426 58.7365 237.687C58.1142 236.052 57.9148 234.274 57.59 232.557C57.5289 232.234 57.4649 231.909 57.3947 231.584C57.3543 231.613 57.29 231.61 57.2355 231.551C56.5384 230.807 56.27 229.603 56.1867 228.595C56.0847 227.36 56.2634 226.127 56.4806 224.917C56.711 223.632 56.9387 222.35 57.0832 221.05C57.2271 219.752 57.3068 218.446 57.3654 217.14C57.3977 216.423 57.4269 215.705 57.4562 214.987C57.4587 214.934 57.4615 214.881 57.464 214.829C57.3246 212.835 57.164 210.893 56.9806 209.234C56.2148 202.3 53.5333 190.771 54.2228 184.804C54.7852 179.934 54.3291 168.887 53.7453 162.624C56.855 161.889 59.2546 159.766 62.6017 159.884Z" fill="url(#paint1_linear_55_919)"/>
<path d="M39.2264 202.352C40.183 202.341 41.0922 202.491 41.9725 202.732C41.5854 205.104 41.2335 207.34 41.0243 209.234C40.8409 210.894 40.6793 212.836 40.5399 214.829C40.5419 214.882 40.5457 214.935 40.5477 214.987C40.577 215.705 40.6062 216.423 40.6385 217.141C40.6977 218.446 40.7768 219.752 40.9208 221.051C41.0653 222.351 41.293 223.632 41.5233 224.917C41.7405 226.128 41.9193 227.361 41.8173 228.596C41.7339 229.604 41.465 230.807 40.7684 231.551C40.7134 231.609 40.6497 231.613 40.6093 231.584C40.5391 231.909 40.476 232.235 40.4149 232.558C40.0901 234.275 39.8898 236.052 39.2675 237.688C38.9866 238.426 38.6135 239.129 38.0731 239.694C37.8302 239.948 37.545 240.182 37.2323 240.344C37.0656 240.482 36.8861 240.601 36.7108 240.693C36.2542 240.932 35.7408 241.039 35.2333 240.963C34.6984 240.883 34.1165 240.599 33.912 240.035C33.8024 239.733 33.8089 239.408 33.8827 239.097C33.7074 239.327 33.5312 239.559 33.3378 239.775C32.964 240.191 32.4877 240.539 31.9266 240.557C31.4518 240.572 30.9469 240.372 30.7206 239.906C30.6757 239.814 30.646 239.718 30.6278 239.62C30.2652 239.841 29.8239 239.969 29.4178 239.848C29.086 239.748 28.8714 239.515 28.787 239.209C28.1621 239.191 27.5416 238.728 27.3749 238.086C27.3295 237.911 27.3198 237.741 27.3329 237.575C27.2288 237.56 27.1242 237.527 27.0262 237.476C26.5355 237.218 26.3891 236.67 26.4901 236.127C26.5993 235.539 26.9462 235.021 27.2528 234.529C27.5467 234.057 27.8598 233.598 28.1844 233.149C28.8381 232.244 29.538 231.378 30.2235 230.501C30.9024 229.632 31.5705 228.751 32.161 227.812C32.5959 227.12 33.0209 226.397 33.3729 225.645C33.4204 225.132 33.4333 224.617 33.4247 224.101C33.4126 223.364 33.3738 222.629 33.3925 221.892C33.4117 221.146 33.5134 220.418 33.6649 219.691C33.7902 219.089 33.9293 218.492 34.0546 217.89V217.377C34.0546 216.559 33.0078 211.303 31.871 204.71C34.2257 203.672 36.5259 202.383 39.2264 202.352ZM62.6024 202.445C63.986 202.5 65.1797 202.992 66.326 203.578C65.1173 210.694 63.9501 216.513 63.9501 217.377V217.89C64.0753 218.491 64.2145 219.089 64.3397 219.691C64.4913 220.418 64.593 221.146 64.6122 221.892C64.6309 222.629 64.5921 223.364 64.58 224.101C64.5719 224.617 64.5843 225.132 64.6317 225.645C64.9838 226.397 65.4087 227.12 65.8436 227.812C66.4341 228.75 67.1022 229.632 67.7811 230.501C68.4666 231.379 69.1665 232.245 69.8202 233.149C70.1448 233.598 70.458 234.057 70.7518 234.529C71.0584 235.021 71.4053 235.539 71.5145 236.127C71.6155 236.669 71.4691 237.218 70.9784 237.476C70.88 237.527 70.7757 237.56 70.6717 237.575C70.6848 237.741 70.6751 237.911 70.6298 238.086C70.4631 238.728 69.8416 239.191 69.2167 239.209C69.1318 239.515 68.9185 239.748 68.5868 239.848C68.1806 239.97 67.7395 239.842 67.3768 239.62C67.3587 239.718 67.3289 239.814 67.2841 239.906C67.0577 240.373 66.5519 240.572 66.077 240.557C65.5155 240.539 65.0396 240.191 64.6659 239.775C64.4719 239.559 64.2963 239.328 64.121 239.097C64.1947 239.408 64.2013 239.733 64.0917 240.035C63.8871 240.599 63.3053 240.883 62.7704 240.963C62.2628 241.039 61.7494 240.933 61.2928 240.693C61.1176 240.601 60.9381 240.482 60.7714 240.344C60.4589 240.182 60.1748 239.948 59.9315 239.694C59.3911 239.129 59.0185 238.427 58.7372 237.688C58.1149 236.052 57.9145 234.275 57.5897 232.558C57.5286 232.235 57.4646 231.909 57.3944 231.584C57.354 231.613 57.2896 231.609 57.2352 231.551C56.5383 230.807 56.2697 229.603 56.1864 228.596C56.0844 227.36 56.2631 226.128 56.4803 224.917C56.7107 223.632 56.9394 222.351 57.0839 221.051C57.2278 219.752 57.3075 218.447 57.3661 217.141C57.3984 216.423 57.4276 215.705 57.4569 214.987C57.4594 214.935 57.4622 214.882 57.4647 214.829C57.3253 212.836 57.1637 210.893 56.9803 209.234C56.8252 207.829 56.5905 206.236 56.3221 204.538C58.3329 203.538 60.2297 202.349 62.6024 202.445Z" fill="url(#paint2_linear_55_919)"/>
<defs>
<linearGradient id="paint0_linear_55_919" x1="49.0999" y1="241" x2="49.0999" y2="0.499995" gradientUnits="userSpaceOnUse">
<stop stop-color="#3EC4FB"/>
<stop offset="1" stop-color="#2A92BC"/>
</linearGradient>
<linearGradient id="paint1_linear_55_919" x1="49.1003" y1="241" x2="49.1003" y2="0.500008" gradientUnits="userSpaceOnUse">
<stop stop-color="#FB963E"/>
<stop offset="1" stop-color="#BC7F2A"/>
</linearGradient>
<linearGradient id="paint2_linear_55_919" x1="49.1" y1="241" x2="49.1" y2="0.501617" gradientUnits="userSpaceOnUse">
<stop stop-color="#FB3E3E"/>
<stop offset="1" stop-color="#BC2A2A"/>
</linearGradient>
</defs>
</svg>
