<svg width="24" height="24" viewBox="0 0 24 24" fill="none" xmlns="http://www.w3.org/2000/svg">
<g clip-path="url(#clip0_49_376)">
<path d="M18.7557 0H5.24428C3.91271 0 2.83344 1.07927 2.83344 2.41099V21.5891C2.83344 22.9208 3.91271 24 5.24428 24H18.7557C20.0873 24 21.1666 22.9208 21.1666 21.5891V2.41099C21.1666 1.07927 20.0873 0 18.7557 0ZM8.78305 19.989C8.78305 20.4094 8.44238 20.75 8.02169 20.75H6.39432C5.97357 20.75 5.63305 20.4094 5.63305 19.989V18.361C5.63305 17.9407 5.97357 17.6 6.39432 17.6H8.02169C8.44238 17.6 8.78305 17.9406 8.78305 18.361V19.989ZM8.78305 15.1891C8.78305 15.6094 8.44238 15.95 8.02169 15.95H6.39432C5.97357 15.95 5.63305 15.6094 5.63305 15.1891V13.561C5.63305 13.1407 5.97357 12.8 6.39432 12.8H8.02169C8.44238 12.8 8.78305 13.1407 8.78305 13.561V15.1891ZM13.583 19.989C13.583 20.4094 13.2425 20.75 12.8217 20.75H11.1943C10.7736 20.75 10.433 20.4094 10.433 19.989V18.361C10.433 17.9407 10.7736 17.6 11.1943 17.6H12.8217C13.2425 17.6 13.583 17.9406 13.583 18.361V19.989ZM13.583 15.1891C13.583 15.6094 13.2425 15.95 12.8217 15.95H11.1943C10.7736 15.95 10.433 15.6094 10.433 15.1891V13.561C10.433 13.1407 10.7736 12.8 11.1943 12.8H12.8217C13.2425 12.8 13.583 13.1407 13.583 13.561V15.1891ZM18.3667 19.989C18.3667 20.4094 18.026 20.75 17.6053 20.75H16.0444C15.6237 20.75 15.2831 20.4094 15.2831 19.989V13.561C15.2831 13.1407 15.6237 12.8 16.0444 12.8H17.6053C18.026 12.8 18.3667 13.1407 18.3667 13.561V19.989ZM18.3667 8.13906C18.3667 8.55936 18.026 8.90002 17.6053 8.90002H6.39432C5.97357 8.90002 5.63305 8.55941 5.63305 8.13906V3.09458C5.63305 2.67423 5.97357 2.33356 6.39432 2.33356H17.6052C18.026 2.33356 18.3666 2.67418 18.3666 3.09458V8.13906H18.3667Z" fill="#70ACC3"/>
</g>
<defs>
<clipPath id="clip0_49_376">
<rect width="24" height="24" fill="white"/>
</clipPath>
</defs>
</svg>
