<svg width="32" height="24" viewBox="0 0 32 24" fill="none" xmlns="http://www.w3.org/2000/svg">
<path d="M30 6V7.5H2V6C2 5.40326 2.31607 4.83097 2.87868 4.40901C3.44129 3.98705 4.20435 3.75 5 3.75H7V1.5C7 1.30109 7.10536 1.11032 7.29289 0.96967C7.48043 0.829018 7.73478 0.75 8 0.75C8.26522 0.75 8.51957 0.829018 8.70711 0.96967C8.89464 1.11032 9 1.30109 9 1.5V3.75H23V1.5C23 1.30109 23.1054 1.11032 23.2929 0.96967C23.4804 0.829018 23.7348 0.75 24 0.75C24.2652 0.75 24.5196 0.829018 24.7071 0.96967C24.8946 1.11032 25 1.30109 25 1.5V3.75H27C27.7956 3.75 28.5587 3.98705 29.1213 4.40901C29.6839 4.83097 30 5.40326 30 6ZM2 9H30V19.5C30 20.0967 29.6839 20.669 29.1213 21.091C28.5587 21.5129 27.7956 21.75 27 21.75H5C4.20435 21.75 3.44129 21.5129 2.87868 21.091C2.31607 20.669 2 20.0967 2 19.5V9ZM6 12C6 12.1989 6.10536 12.3897 6.29289 12.5303C6.48043 12.671 6.73478 12.75 7 12.75H16C16.2652 12.75 16.5196 12.671 16.7071 12.5303C16.8946 12.3897 17 12.1989 17 12C17 11.8011 16.8946 11.6103 16.7071 11.4697C16.5196 11.329 16.2652 11.25 16 11.25H7C6.73478 11.25 6.48043 11.329 6.29289 11.4697C6.10536 11.6103 6 11.8011 6 12ZM6 17.25C6 17.4489 6.10536 17.6397 6.29289 17.7803C6.48043 17.921 6.73478 18 7 18H21C21.2652 18 21.5196 17.921 21.7071 17.7803C21.8946 17.6397 22 17.4489 22 17.25C22 17.0511 21.8946 16.8603 21.7071 16.7197C21.5196 16.579 21.2652 16.5 21 16.5H7C6.73478 16.5 6.48043 16.579 6.29289 16.7197C6.10536 16.8603 6 17.0511 6 17.25Z" fill="#70ACC3"/>
</svg>
