<svg width="32" height="32" viewBox="0 0 32 32" fill="none" xmlns="http://www.w3.org/2000/svg">
<path d="M25.0938 18.2188C25.6979 19.4062 26 20.6667 26 22C26 22.9167 25.8802 23.8021 25.6406 24.6562C25.401 25.5104 25.0677 26.3073 24.6406 27.0469C24.2135 27.7865 23.6927 28.4583 23.0781 29.0625C22.4635 29.6667 21.7865 30.1875 21.0469 30.625C20.3073 31.0625 19.5104 31.401 18.6562 31.6406C17.8021 31.8802 16.9167 32 16 32C15.0833 32 14.1979 31.8802 13.3438 31.6406C12.4896 31.401 11.6927 31.0677 10.9531 30.6406C10.2135 30.2135 9.54167 29.6927 8.9375 29.0781C8.33333 28.4635 7.8125 27.7865 7.375 27.0469C6.9375 26.3073 6.59896 25.5104 6.35938 24.6562C6.11979 23.8021 6 22.9167 6 22C6 20.6771 6.29167 19.4219 6.875 18.2344L15.9219 0L25.0938 18.2188Z" fill="#33ABDB"/>
</svg>
