<svg width="24" height="24" viewBox="0 0 24 24" fill="none" xmlns="http://www.w3.org/2000/svg">
<path d="M14.4 20.4H9.60002C9.28176 20.4 8.97654 20.5265 8.7515 20.7515C8.52645 20.9765 8.40002 21.2818 8.40002 21.6C8.40002 21.9183 8.52645 22.2235 8.7515 22.4486C8.97654 22.6736 9.28176 22.8 9.60002 22.8H14.4C14.7183 22.8 15.0235 22.6736 15.2486 22.4486C15.4736 22.2235 15.6 21.9183 15.6 21.6C15.6 21.2818 15.4736 20.9765 15.2486 20.7515C15.0235 20.5265 14.7183 20.4 14.4 20.4Z" fill="#70ACC3"/>
<path d="M20.1192 13.56L19.2 11.7168V8.40001C19.2 6.49045 18.4414 4.6591 17.0912 3.30884C15.7409 1.95858 13.9096 1.20001 12 1.20001C10.0904 1.20001 8.25909 1.95858 6.90883 3.30884C5.55857 4.6591 4.8 6.49045 4.8 8.40001V11.7168L3.8808 13.56C3.648 14.0281 3.5385 14.5478 3.56267 15.07C3.58684 15.5922 3.74387 16.0996 4.01891 16.5442C4.29394 16.9888 4.67788 17.3558 5.13437 17.6106C5.59087 17.8653 6.10483 17.9994 6.6276 18H17.3724C17.8952 17.9994 18.4091 17.8653 18.8656 17.6106C19.3221 17.3558 19.7061 16.9888 19.9811 16.5442C20.2561 16.0996 20.4132 15.5922 20.4373 15.07C20.4615 14.5478 20.352 14.0281 20.1192 13.56Z" fill="#70ACC3"/>
</svg>
