<svg width="24" height="24" viewBox="0 0 24 24" fill="none" xmlns="http://www.w3.org/2000/svg">
<path d="M4 20C3.45 20 2.97933 19.8043 2.588 19.413C2.19667 19.0217 2.00067 18.5507 2 18V6C2 5.45 2.196 4.97933 2.588 4.588C2.98 4.19667 3.45067 4.00067 4 4H20C20.55 4 21.021 4.196 21.413 4.588C21.805 4.98 22.0007 5.45067 22 6V18C22 18.55 21.8043 19.021 21.413 19.413C21.0217 19.805 20.5507 20.0007 20 20H4ZM9.6 14.9C9.78333 15.0333 9.96267 15.1457 10.138 15.237C10.3133 15.3283 10.5007 15.416 10.7 15.5L10.85 16.225C10.9 16.4583 11.0127 16.646 11.188 16.788C11.3633 16.93 11.5673 17.0007 11.8 17H12.2C12.4333 17 12.6377 16.925 12.813 16.775C12.9883 16.625 13.1007 16.4333 13.15 16.2L13.3 15.5C13.5 15.4167 13.6877 15.3293 13.863 15.238C14.0383 15.1467 14.2173 15.034 14.4 14.9L15.125 15.125C15.3417 15.1917 15.5543 15.1833 15.763 15.1C15.9717 15.0167 16.134 14.8833 16.25 14.7L16.45 14.35C16.5667 14.15 16.6083 13.9333 16.575 13.7C16.5417 13.4667 16.4333 13.275 16.25 13.125L15.7 12.65C15.7333 12.4333 15.75 12.2167 15.75 12C15.75 11.7833 15.7333 11.5667 15.7 11.35L16.25 10.875C16.4333 10.725 16.5417 10.5377 16.575 10.313C16.6083 10.0883 16.5667 9.87567 16.45 9.675L16.225 9.3C16.1083 9.11667 15.95 8.98333 15.75 8.9C15.55 8.81667 15.3417 8.80833 15.125 8.875L14.4 9.1C14.2167 8.96667 14.0373 8.85433 13.862 8.763C13.6867 8.67167 13.4993 8.584 13.3 8.5L13.15 7.775C13.1 7.54167 12.9877 7.35433 12.813 7.213C12.6383 7.07167 12.434 7.00067 12.2 7H11.8C11.5667 7 11.3627 7.075 11.188 7.225C11.0133 7.375 10.9007 7.56667 10.85 7.8L10.7 8.5C10.5 8.58333 10.3127 8.671 10.138 8.763C9.96333 8.855 9.784 8.96733 9.6 9.1L8.875 8.875C8.65833 8.80833 8.446 8.81667 8.238 8.9C8.03 8.98333 7.86733 9.11667 7.75 9.3L7.55 9.65C7.43333 9.85 7.39167 10.0667 7.425 10.3C7.45833 10.5333 7.56667 10.725 7.75 10.875L8.3 11.35C8.26667 11.5667 8.25 11.7833 8.25 12C8.25 12.2167 8.26667 12.4333 8.3 12.65L7.75 13.125C7.56667 13.275 7.45833 13.4627 7.425 13.688C7.39167 13.9133 7.43333 14.1257 7.55 14.325L7.775 14.7C7.89167 14.8833 8.05 15.0167 8.25 15.1C8.45 15.1833 8.65833 15.1917 8.875 15.125L9.6 14.9ZM12 14C11.45 14 10.9793 13.804 10.588 13.412C10.1967 13.02 10.0007 12.5493 10 12C9.99933 11.4507 10.1953 10.98 10.588 10.588C10.9807 10.196 11.4513 10 12 10C12.5487 10 13.0197 10.196 13.413 10.588C13.8063 10.98 14.002 11.4507 14 12C13.998 12.5493 13.8023 13.0203 13.413 13.413C13.0237 13.8057 12.5527 14.0013 12 14Z" fill="#49454F"/>
</svg>
