<svg width="21" height="21" viewBox="0 0 21 21" fill="none" xmlns="http://www.w3.org/2000/svg">
<path fill-rule="evenodd" clip-rule="evenodd" d="M4.78342 2.96556C2.1166 4.90311 0.783185 5.87189 0.259485 7.30291C0.217475 7.41771 0.179685 7.534 0.146195 7.65157C-0.271245 9.1171 0.238065 10.6846 1.2567 13.8197C2.27533 16.9547 2.78465 18.5222 3.9838 19.4625C4.08 19.5379 4.17893 19.6098 4.28039 19.678C5.54521 20.5279 7.19339 20.5279 10.4897 20.5279C13.7861 20.5279 15.4343 20.5279 16.6991 19.678C16.8005 19.6098 16.8995 19.5379 16.9957 19.4625C18.1948 18.5222 18.7041 16.9547 19.7228 13.8197C20.7414 10.6846 21.2507 9.1171 20.8333 7.65157C20.7998 7.534 20.762 7.41771 20.72 7.30291C20.1963 5.87189 18.8629 4.90312 16.1961 2.96557C13.5292 1.02801 12.1958 0.05923 10.673 0.00336C10.5508 -0.00112 10.4286 -0.00112 10.3064 0.00336C8.78365 0.05923 7.45023 1.02801 4.78342 2.96556ZM8.48975 15.0697C8.07553 15.0697 7.73975 15.4054 7.73975 15.8197C7.73975 16.2339 8.07553 16.5697 8.48975 16.5697H12.4897C12.9039 16.5697 13.2397 16.2339 13.2397 15.8197C13.2397 15.4054 12.9039 15.0697 12.4897 15.0697H8.48975Z" fill="#49454F"/>
</svg>
