<svg width="182" height="45" viewBox="0 0 182 45" fill="none" xmlns="http://www.w3.org/2000/svg">
<path d="M190.379 12.3093C189.486 9.592 188.452 6.81454 185.85 4.47396C183.248 2.13338 178.724 0.289085 173.912 0.452691C165.089 0.752576 158.964 7.31905 150.278 6.30546C143.668 5.53415 139.951 0.593413 133.224 0.418696C126.279 0.238333 121.887 5.29355 114.955 5.52545C107.865 5.76263 103.041 0.932698 96.0086 0.297793C87.007 -0.514833 80.1864 5.75518 71.0893 5.66929C62.2747 5.58611 55.739 -0.427384 46.9696 0.0242153C40.0911 0.378395 35.3724 4.64429 28.4873 4.95925C24.6125 5.13649 20.9247 4.00512 17.6044 2.8227C13.1033 1.21973 7.96613 -0.745047 2.53334 0.464522C-0.648734 1.173 -2.36253 2.35801 -3.09086 4.2062C-4.03958 6.61345 -5.10833 8.90574 -6.38543 11.2732C-9.66254 17.3483 -12.2616 23.6445 -11.9789 30.0656C-11.5918 38.8609 -4.74045 48.1428 8.80201 52.4007C18.3902 55.4154 29.7971 55.544 40.6851 55.5985C65.857 55.7246 91.029 55.8506 116.201 55.9767C128.745 56.0395 141.433 56.0937 153.61 54.4494C165.786 52.8051 177.591 49.2677 184.757 43.4267C195.476 34.6898 193.853 22.8787 190.379 12.3093Z" fill="url(#paint0_linear_31_1682)"/>
<defs>
<linearGradient id="paint0_linear_31_1682" x1="90.5" y1="0" x2="90.5" y2="33.303" gradientUnits="userSpaceOnUse">
<stop stop-color="#FB3E3E"/>
<stop offset="1" stop-color="#BC2A2A"/>
</linearGradient>
</defs>
</svg>
