<svg width="380" height="66" viewBox="0 0 380 66" fill="none" xmlns="http://www.w3.org/2000/svg">
<path d="M397.554 25.9374C395.698 20.2117 393.549 14.3592 388.142 9.42727C382.735 4.49533 373.334 0.609143 363.335 0.953884C345 1.58578 332.271 15.4223 314.221 13.2865C300.485 11.6613 292.762 1.25041 278.782 0.882252C264.35 0.502201 255.224 11.1543 240.819 11.6429C226.086 12.1427 216.062 1.96533 201.447 0.627492C182.741 -1.08483 168.568 12.127 149.664 11.946C131.347 11.7707 117.765 -0.900558 99.5416 0.0510252C85.2479 0.797333 75.4422 9.78618 61.1345 10.4498C53.0826 10.8233 45.4192 8.43936 38.5194 5.94783C29.1659 2.57015 18.4906 -1.56992 7.20099 0.978815C0.588484 2.47168 -2.97288 4.96866 -4.48638 8.86308C-6.45786 13.9355 -8.67878 18.7657 -11.3326 23.7542C-18.1427 36.5553 -23.5435 49.8224 -22.9562 63.3525C-22.1517 81.8856 -7.91429 101.444 20.2276 110.416C40.1523 116.768 63.8565 117.039 86.4821 117.154C138.791 117.42 191.099 117.685 243.408 117.951C269.476 118.083 295.842 118.197 321.145 114.733C346.448 111.268 370.98 103.814 385.871 91.5062C408.145 73.0964 404.772 48.2087 397.554 25.9374Z" fill="url(#paint0_linear_23_85)"/>
<defs>
<linearGradient id="paint0_linear_23_85" x1="190" y1="0" x2="190" y2="70.1742" gradientUnits="userSpaceOnUse">
<stop stop-color="#3EC4FB"/>
<stop offset="1" stop-color="#2A92BC"/>
</linearGradient>
</defs>
</svg>
